<?xml version="1.0" encoding="UTF-8" standalone="no"?>
<svg
   xmlns:dc="http://purl.org/dc/elements/1.1/"
   xmlns:cc="http://creativecommons.org/ns#"
   xmlns:rdf="http://www.w3.org/1999/02/22-rdf-syntax-ns#"
   xmlns:svg="http://www.w3.org/2000/svg"
   xmlns="http://www.w3.org/2000/svg"
   id="svg847"
   version="1.1"
   viewBox="0 0 79.374998 79.375002"
   height="300"
   width="300">
  <defs
     id="defs841" />
  <metadata
     id="metadata844">
    <rdf:RDF>
      <cc:Work
         rdf:about="">
        <dc:format>image/svg+xml</dc:format>
        <dc:type
           rdf:resource="http://purl.org/dc/dcmitype/StillImage" />
        <dc:title></dc:title>
      </cc:Work>
    </rdf:RDF>
  </metadata>
  <g
     transform="translate(0,-217.62498)"
     id="layer1">
    <g
       transform="matrix(0,3.8607338,3.8607338,0,-671.1607,346.28619)"
       id="g1523">
      <g
         id="g1463"
         style="fill:#c1ffee;fill-opacity:1">
        <path
           id="path1413"
           d="m -72.157179,163.36128 v 2.23838 l -2.83974,2.83974 v 1.23612 l -7.38332,7.38332 h -0.80181 l -0.51783,-0.51783 v -0.61806 l -1.54515,1.54515 -0.43598,0.11682 -1.12426,-0.64909 v -0.97948 l -1.19517,1.19518 -0.4352,0.25126 -1.58491,-0.42468 v -1.12198 l -0.43859,0.25322 -0.43104,0.11549 -1.56198,-0.41853 v -1.62062 l 6.7231,-6.7231 h -1.3284 v -1.99657 l 2.80633,-2.80632 h 5.01131 l 1.34131,-1.34132 z"
           style="fill:#c1ffee;fill-opacity:1;stroke:#000000;stroke-width:0.26458332px;stroke-linecap:butt;stroke-linejoin:miter;stroke-opacity:1" />
        <path
           id="path1415"
           d="m -90.020549,175.85613 0.15676,-0.80181 4.17609,-4.17609"
           style="fill:#c1ffee;fill-opacity:1;stroke:#000000;stroke-width:0.26458332px;stroke-linecap:butt;stroke-linejoin:miter;stroke-opacity:1" />
        <path
           id="path1417"
           d="m -86.805269,175.95635 v 0 l 0.0819,-0.70158 3.57473,-3.57473"
           style="fill:#c1ffee;fill-opacity:1;stroke:#000000;stroke-width:0.26458332px;stroke-linecap:butt;stroke-linejoin:miter;stroke-opacity:1" />
        <path
           id="path1419"
           d="m -83.699879,175.92295 v 0 l 0.18374,-0.66818 2.72281,-2.72281"
           style="fill:#c1ffee;fill-opacity:1;stroke:#000000;stroke-width:0.26458332px;stroke-linecap:butt;stroke-linejoin:miter;stroke-opacity:1" />
        <path
           id="path1421"
           d="m -85.729059,167.46259 2.58917,-2.58917"
           style="fill:#c1ffee;fill-opacity:1;stroke:#000000;stroke-width:0.26458332px;stroke-linecap:butt;stroke-linejoin:miter;stroke-opacity:1" />
        <path
           id="path1423"
           d="m -74.996919,168.4394 v -1.23612"
           style="fill:#c1ffee;fill-opacity:1;stroke:#000000;stroke-width:0.26458332px;stroke-linecap:butt;stroke-linejoin:miter;stroke-opacity:1" />
      </g>
    </g>
    <g
       transform="matrix(0,4.768051,4.768051,0,-811.16443,648.66636)"
       id="g1504">
      <g
         id="g1483"
         style="fill:#e67d50;fill-opacity:1">
        <path
           id="path1441"
           d="m -146.32403,138.15551 3.37816,3.37816 v 2.62221 l -2.94113,2.94113 v 0.93313 l -5.2267,5.2267 -6.00585,-1.60926 v -1.63307 l -0.43925,-0.2536 v -1.3528 l -0.5974,-0.16007 V 146.282 l -0.50951,-0.50952 0.11271,-0.42062 -0.77555,-0.20781 v -1.60238 l 3.10047,-3.10047 h 5.27384 l 2.2059,-2.20591 z"
           style="fill:#e67d50;fill-opacity:1;stroke:#000000;stroke-width:0.26458332px;stroke-linecap:butt;stroke-linejoin:miter;stroke-opacity:1" />
        <path
           id="path1443"
           d="m -158.66571,145.77248 0.4635,-1.98049 1.71765,-1.75106 3.02623,1.21726"
           style="fill:#e67d50;fill-opacity:1;stroke:#000000;stroke-width:0.26458332px;stroke-linecap:butt;stroke-linejoin:miter;stroke-opacity:1" />
        <path
           id="path1445"
           d="m -158.1562,146.282 5.86088,1.57042"
           style="fill:#e67d50;fill-opacity:1;stroke:#000000;stroke-width:0.26458332px;stroke-linecap:butt;stroke-linejoin:miter;stroke-opacity:1" />
        <path
           id="path1447"
           d="m -157.5588,148.40811 5.18855,1.39026"
           style="fill:#e67d50;fill-opacity:1;stroke:#000000;stroke-width:0.26458332px;stroke-linecap:butt;stroke-linejoin:miter;stroke-opacity:1" />
        <path
           id="path1449"
           d="m -157.11955,150.01451 4.83461,1.29543"
           style="fill:#e67d50;fill-opacity:1;stroke:#000000;stroke-width:0.26458332px;stroke-linecap:butt;stroke-linejoin:miter;stroke-opacity:1" />
        <path
           id="path1451"
           d="m -145.887,147.09701 -0.0118,-1.47647"
           style="fill:#e67d50;fill-opacity:1;stroke:#000000;stroke-width:0.26458332px;stroke-linecap:butt;stroke-linejoin:miter;stroke-opacity:1" />
        <path
           id="path1453"
           d="m -150.95424,140.4412 h 1.08668"
           style="fill:#e67d50;fill-opacity:1;stroke:#000000;stroke-width:0.26458332px;stroke-linecap:butt;stroke-linejoin:miter;stroke-opacity:1" />
        <path
           id="path1455"
           d="m -156.25663,144.53959 2.95728,0.84031 0.9826,-0.97452 v -2.37562"
           style="fill:#e67d50;fill-opacity:1;stroke:#000000;stroke-width:0.26458332px;stroke-linecap:butt;stroke-linejoin:miter;stroke-opacity:1" />
      </g>
    </g>
    <g
       transform="matrix(0,3.9669404,3.9669404,0,-1113.4873,370.92303)"
       id="g1514">
      <path
         style="fill:#c0ff63;fill-opacity:1;stroke:#000000;stroke-width:0.26458332px;stroke-linecap:butt;stroke-linejoin:miter;stroke-opacity:1"
         d="m -119.22705,163.96918 3.4411,3.44109 v 2.20498 l -2.93997,2.93996 v 1.23612 l -5.22846,5.22846 -3.97964,-1.06634 -2.83637,2.83637 -1.91267,-0.5125 V 178.669 l 5.74245,-5.74245 -0.38805,-0.38804 -6.29753,2.42213 -1.9043,-0.63477 v -2.10474 l 5.24517,-1.60362 -0.13364,-1.40317 2.90656,-2.90655 h 3.40768 l 2.33861,-2.33861 z"
         id="path1425" />
      <path
         style="fill:#c0ffee;fill-opacity:1;stroke:#000000;stroke-width:0.26458332px;stroke-linecap:butt;stroke-linejoin:miter;stroke-opacity:1"
         d="m -127.93402,177.95345 2.92663,-2.92663"
         id="path1427" />
      <path
         style="fill:#c0ffee;fill-opacity:1;stroke:#000000;stroke-width:0.26458332px;stroke-linecap:butt;stroke-linejoin:miter;stroke-opacity:1"
         d="m -118.72592,172.55521 v -1.30294"
         id="path1429" />
      <path
         style="fill:#c0ffee;fill-opacity:1;stroke:#000000;stroke-width:0.26458332px;stroke-linecap:butt;stroke-linejoin:miter;stroke-opacity:1"
         d="m -124.10472,166.30779 h 1.16931"
         id="path1431" />
      <path
         style="fill:#c0ff63;fill-opacity:1;stroke:#000000;stroke-width:0.26458332px;stroke-linecap:butt;stroke-linejoin:miter;stroke-opacity:1"
         d="m -130.28532,170.61751 3.84199,-1.1359 0.0334,-1.33635"
         id="path1433" />
      <path
         style="fill:#c0ffee;fill-opacity:1;stroke:#000000;stroke-width:0.26458332px;stroke-linecap:butt;stroke-linejoin:miter;stroke-opacity:1"
         d="m -126.72055,176.77837 1.5368,0.56795"
         id="path1435" />
      <path
         style="fill:#c0ffee;fill-opacity:1;stroke:#000000;stroke-width:0.28840867px;stroke-linecap:butt;stroke-linejoin:miter;stroke-opacity:1"
         d="m -128.18058,174.04838 -0.16704,-0.35727"
         id="path1439" />
      <path
         style="fill:#c0ff63;fill-opacity:1;stroke:#000000;stroke-width:0.26458332px;stroke-linecap:butt;stroke-linejoin:miter;stroke-opacity:1"
         d="m -130.33556,173.70437 3.0069,-1.16586 0.38805,0.38804 -3.11043,2.97025 -0.46848,-0.39582 z"
         id="path1493" />
    </g>
    <g
       id="g5296"
       transform="matrix(3.8607338,0,0,3.8607338,357.44392,-396.87458)">
      <g
         style="fill:#c1ffee;fill-opacity:1"
         id="g5294">
        <path
           style="fill:#c1ffee;fill-opacity:1;stroke:#000000;stroke-width:0.26458332px;stroke-linecap:butt;stroke-linejoin:miter;stroke-opacity:1"
           d="m -72.157179,163.36128 v 2.23838 l -2.83974,2.83974 v 1.23612 l -7.38332,7.38332 h -0.80181 l -0.51783,-0.51783 v -0.61806 l -1.54515,1.54515 -0.43598,0.11682 -1.12426,-0.64909 v -0.97948 l -1.19517,1.19518 -0.4352,0.25126 -1.58491,-0.42468 v -1.12198 l -0.43859,0.25322 -0.43104,0.11549 -1.56198,-0.41853 v -1.62062 l 6.7231,-6.7231 h -1.3284 v -1.99657 l 2.80633,-2.80632 h 5.01131 l 1.34131,-1.34132 z"
           id="path5282" />
        <path
           style="fill:#c1ffee;fill-opacity:1;stroke:#000000;stroke-width:0.26458332px;stroke-linecap:butt;stroke-linejoin:miter;stroke-opacity:1"
           d="m -90.020549,175.85613 0.15676,-0.80181 4.17609,-4.17609"
           id="path5284" />
        <path
           style="fill:#c1ffee;fill-opacity:1;stroke:#000000;stroke-width:0.26458332px;stroke-linecap:butt;stroke-linejoin:miter;stroke-opacity:1"
           d="m -86.805269,175.95635 v 0 l 0.0819,-0.70158 3.57473,-3.57473"
           id="path5286" />
        <path
           style="fill:#c1ffee;fill-opacity:1;stroke:#000000;stroke-width:0.26458332px;stroke-linecap:butt;stroke-linejoin:miter;stroke-opacity:1"
           d="m -83.699879,175.92295 v 0 l 0.18374,-0.66818 2.72281,-2.72281"
           id="path5288" />
        <path
           style="fill:#c1ffee;fill-opacity:1;stroke:#000000;stroke-width:0.26458332px;stroke-linecap:butt;stroke-linejoin:miter;stroke-opacity:1"
           d="m -85.729059,167.46259 2.58917,-2.58917"
           id="path5290" />
        <path
           style="fill:#c1ffee;fill-opacity:1;stroke:#000000;stroke-width:0.26458332px;stroke-linecap:butt;stroke-linejoin:miter;stroke-opacity:1"
           d="m -74.996919,168.4394 v -1.23612"
           id="path5292" />
      </g>
    </g>
    <g
       id="g5316"
       transform="matrix(4.768051,0,0,4.768051,975.20213,-435.31589)">
      <g
         style="fill:#e67d50;fill-opacity:1"
         id="g5314">
        <path
           style="fill:#e67d50;fill-opacity:1;stroke:#000000;stroke-width:0.26458332px;stroke-linecap:butt;stroke-linejoin:miter;stroke-opacity:1"
           d="m -146.32403,138.15551 3.37816,3.37816 v 2.62221 l -2.94113,2.94113 v 0.93313 l -5.2267,5.2267 -6.00585,-1.60926 v -1.63307 l -0.43925,-0.2536 v -1.3528 l -0.5974,-0.16007 V 146.282 l -0.50951,-0.50952 0.11271,-0.42062 -0.77555,-0.20781 v -1.60238 l 3.10047,-3.10047 h 5.27384 l 2.2059,-2.20591 z"
           id="path5298" />
        <path
           style="fill:#e67d50;fill-opacity:1;stroke:#000000;stroke-width:0.26458332px;stroke-linecap:butt;stroke-linejoin:miter;stroke-opacity:1"
           d="m -158.66571,145.77248 0.4635,-1.98049 1.71765,-1.75106 3.02623,1.21726"
           id="path5300" />
        <path
           style="fill:#e67d50;fill-opacity:1;stroke:#000000;stroke-width:0.26458332px;stroke-linecap:butt;stroke-linejoin:miter;stroke-opacity:1"
           d="m -158.1562,146.282 5.86088,1.57042"
           id="path5302" />
        <path
           style="fill:#e67d50;fill-opacity:1;stroke:#000000;stroke-width:0.26458332px;stroke-linecap:butt;stroke-linejoin:miter;stroke-opacity:1"
           d="m -157.5588,148.40811 5.18855,1.39026"
           id="path5304" />
        <path
           style="fill:#e67d50;fill-opacity:1;stroke:#000000;stroke-width:0.26458332px;stroke-linecap:butt;stroke-linejoin:miter;stroke-opacity:1"
           d="m -157.11955,150.01451 4.83461,1.29543"
           id="path5306" />
        <path
           style="fill:#e67d50;fill-opacity:1;stroke:#000000;stroke-width:0.26458332px;stroke-linecap:butt;stroke-linejoin:miter;stroke-opacity:1"
           d="m -145.887,147.09701 -0.0118,-1.47647"
           id="path5308" />
        <path
           style="fill:#e67d50;fill-opacity:1;stroke:#000000;stroke-width:0.26458332px;stroke-linecap:butt;stroke-linejoin:miter;stroke-opacity:1"
           d="m -150.95424,140.4412 h 1.08668"
           id="path5310" />
        <path
           style="fill:#e67d50;fill-opacity:1;stroke:#000000;stroke-width:0.26458332px;stroke-linecap:butt;stroke-linejoin:miter;stroke-opacity:1"
           d="m -156.25663,144.53959 2.95728,0.84031 0.9826,-0.97452 v -2.37562"
           id="path5312" />
      </g>
    </g>
    <g
       id="g5334"
       transform="matrix(3.9669404,0,0,3.9669404,882.28629,-714.11411)">
      <path
         id="path5318"
         d="m -119.22705,163.96918 3.4411,3.44109 v 2.20498 l -2.93997,2.93996 v 1.23612 l -5.22846,5.22846 -3.97964,-1.06634 -2.83637,2.83637 -1.91267,-0.5125 V 178.669 l 5.74245,-5.74245 -0.38805,-0.38804 -6.29753,2.42213 -1.9043,-0.63477 v -2.10474 l 5.24517,-1.60362 -0.13364,-1.40317 2.90656,-2.90655 h 3.40768 l 2.33861,-2.33861 z"
         style="fill:#c0ff63;fill-opacity:1;stroke:#000000;stroke-width:0.26458332px;stroke-linecap:butt;stroke-linejoin:miter;stroke-opacity:1" />
      <path
         id="path5320"
         d="m -127.93402,177.95345 2.92663,-2.92663"
         style="fill:#c0ffee;fill-opacity:1;stroke:#000000;stroke-width:0.26458332px;stroke-linecap:butt;stroke-linejoin:miter;stroke-opacity:1" />
      <path
         id="path5322"
         d="m -118.72592,172.55521 v -1.30294"
         style="fill:#c0ffee;fill-opacity:1;stroke:#000000;stroke-width:0.26458332px;stroke-linecap:butt;stroke-linejoin:miter;stroke-opacity:1" />
      <path
         id="path5324"
         d="m -124.10472,166.30779 h 1.16931"
         style="fill:#c0ffee;fill-opacity:1;stroke:#000000;stroke-width:0.26458332px;stroke-linecap:butt;stroke-linejoin:miter;stroke-opacity:1" />
      <path
         id="path5326"
         d="m -130.28532,170.61751 3.84199,-1.1359 0.0334,-1.33635"
         style="fill:#c0ff63;fill-opacity:1;stroke:#000000;stroke-width:0.26458332px;stroke-linecap:butt;stroke-linejoin:miter;stroke-opacity:1" />
      <path
         id="path5328"
         d="m -126.72055,176.77837 1.5368,0.56795"
         style="fill:#c0ffee;fill-opacity:1;stroke:#000000;stroke-width:0.26458332px;stroke-linecap:butt;stroke-linejoin:miter;stroke-opacity:1" />
      <path
         id="path5330"
         d="m -128.18058,174.04838 -0.16704,-0.35727"
         style="fill:#c0ffee;fill-opacity:1;stroke:#000000;stroke-width:0.28840867px;stroke-linecap:butt;stroke-linejoin:miter;stroke-opacity:1" />
      <path
         id="path5332"
         d="m -130.33556,173.70437 3.0069,-1.16586 0.38805,0.38804 -3.11043,2.97025 -0.46848,-0.39582 z"
         style="fill:#c0ff63;fill-opacity:1;stroke:#000000;stroke-width:0.26458332px;stroke-linecap:butt;stroke-linejoin:miter;stroke-opacity:1" />
    </g>
  </g>
</svg>
