<?xml version="1.0" encoding="UTF-8" standalone="no"?>
<!-- Created with Inkscape (http://www.inkscape.org/) -->

<svg
   xmlns:dc="http://purl.org/dc/elements/1.1/"
   xmlns:cc="http://creativecommons.org/ns#"
   xmlns:rdf="http://www.w3.org/1999/02/22-rdf-syntax-ns#"
   xmlns:svg="http://www.w3.org/2000/svg"
   xmlns="http://www.w3.org/2000/svg"
   xmlns:sodipodi="http://sodipodi.sourceforge.net/DTD/sodipodi-0.dtd"
   xmlns:inkscape="http://www.inkscape.org/namespaces/inkscape"
   width="400"
   height="400"
   viewBox="0 0 105.83333 105.83334"
   version="1.1"
   id="svg8"
   inkscape:version="0.92.5 (0.92.5+69)"
   sodipodi:docname="016logo4.svg">
  <defs
     id="defs2" />
  <sodipodi:namedview
     id="base"
     pagecolor="#ffffff"
     bordercolor="#666666"
     borderopacity="1.0"
     inkscape:pageopacity="0.0"
     inkscape:pageshadow="2"
     inkscape:zoom="0.30761719"
     inkscape:cx="-225.46878"
     inkscape:cy="208.38256"
     inkscape:document-units="mm"
     inkscape:current-layer="layer1"
     showgrid="false"
     units="px"
     inkscape:window-width="1366"
     inkscape:window-height="712"
     inkscape:window-x="0"
     inkscape:window-y="30"
     inkscape:window-maximized="1" />
  <metadata
     id="metadata5">
    <rdf:RDF>
      <cc:Work
         rdf:about="">
        <dc:format>image/svg+xml</dc:format>
        <dc:type
           rdf:resource="http://purl.org/dc/dcmitype/StillImage" />
        <dc:title></dc:title>
      </cc:Work>
    </rdf:RDF>
  </metadata>
  <g
     inkscape:label="Layer 1"
     inkscape:groupmode="layer"
     id="layer1"
     transform="translate(0,-191.16665)">
    <path
       style="opacity:1;fill:#000000;fill-opacity:1;fill-rule:evenodd;stroke:none;stroke-width:1.09432435;stroke-linecap:round;stroke-linejoin:round;stroke-miterlimit:4;stroke-dasharray:none;stroke-opacity:1;paint-order:markers fill stroke"
       d="m -237.79911,259.97512 a 52.916666,52.916666 0 0 0 -52.91666,52.91667 52.916666,52.916666 0 0 0 52.91666,52.91667 52.916666,52.916666 0 0 0 52.91667,-52.91667 52.916666,52.916666 0 0 0 -52.91667,-52.91667 z m -24.96333,22.40329 a 14.191746,14.191746 0 0 1 13.09894,8.76225 l 24.46104,2.9006 a 14.191745,14.191745 0 0 1 10.60607,-4.78214 14.191745,14.191745 0 0 1 14.1919,14.1919 14.191745,14.191745 0 0 1 -14.1919,14.19138 14.191745,14.191745 0 0 1 -14.10405,-12.75632 l -21.12739,-2.50579 a 14.191746,14.191746 0 0 1 -2.574,3.86281 l 10.27844,20.24527 a 14.191745,14.191745 0 0 1 2.58382,-0.24494 14.191745,14.191745 0 0 1 14.1919,14.1919 14.191745,14.191745 0 0 1 -14.1919,14.19189 14.191745,14.191745 0 0 1 -14.1919,-14.19189 14.191745,14.191745 0 0 1 2.26137,-7.65793 l -11.17968,-22.01985 a 14.191746,14.191746 0 0 1 -0.11266,0.004 14.191746,14.191746 0 0 1 -14.19138,-14.1919 14.191746,14.191746 0 0 1 14.19138,-14.19138 z"
       id="circle837"
       inkscape:connector-curvature="0" />
    <path
       style="opacity:1;fill:#000000;fill-opacity:1;fill-rule:evenodd;stroke:none;stroke-width:1.09432435;stroke-linecap:round;stroke-linejoin:round;stroke-miterlimit:4;stroke-dasharray:none;stroke-opacity:1;paint-order:markers fill stroke"
       d="m -220.59699,112.03691 a 52.916666,52.916666 0 0 0 -52.91666,52.91666 52.916666,52.916666 0 0 0 52.91666,52.91667 52.916666,52.916666 0 0 0 52.91667,-52.91667 52.916666,52.916666 0 0 0 -52.91667,-52.91666 z m 0,13.89631 c 0.45568,0 0.91123,0.17483 1.26039,0.52399 l 11.35745,11.35745 v -2.58175 c 0,-0.49952 0.40224,-0.90124 0.90175,-0.90124 h 11.88506 c 0.49952,0 0.90176,0.40172 0.90176,0.90124 v 16.27032 l 9.85056,9.85056 c 0.6835,0.68349 0.69631,1.77396 0.0419,2.47479 h -9.74049 v 38.36199 c 0,0.9876 -0.79525,1.78284 -1.78283,1.78284 h -17.83096 v -24.95093 c 0,-0.49951 -0.40224,-0.90175 -0.90175,-0.90175 h -11.88559 c -0.49951,0 -0.90175,0.40224 -0.90175,0.90175 v 24.95093 h -17.83095 c -0.98759,0 -1.78284,-0.79524 -1.78284,-1.78284 v -38.36199 h -9.74049 c -0.6544,-0.70083 -0.64163,-1.7913 0.0419,-2.47479 l 34.89657,-34.89658 c 0.34917,-0.34916 0.80471,-0.52399 1.26039,-0.52399 z"
       id="path815"
       inkscape:connector-curvature="0" />
    <path
       style="opacity:1;fill:#000000;fill-opacity:1;fill-rule:evenodd;stroke:none;stroke-width:1.09432435;stroke-linecap:round;stroke-linejoin:round;stroke-miterlimit:4;stroke-dasharray:none;stroke-opacity:1;paint-order:markers fill stroke"
       d="m -131.14598,184.2858 a 52.916666,52.916666 0 0 0 -52.91667,52.91666 52.916666,52.916666 0 0 0 52.91667,52.91667 52.916666,52.916666 0 0 0 52.916665,-52.91667 52.916666,52.916666 0 0 0 -52.916665,-52.91666 z m 0,8.51472 a 44.402054,44.402054 0 0 1 44.401943,44.40194 44.402054,44.402054 0 0 1 -44.401943,44.40194 44.402054,44.402054 0 0 1 -44.40194,-44.40194 44.402054,44.402054 0 0 1 44.40194,-44.40194 z m -1.67277,3.86023 a 40.600886,40.600886 0 0 0 -24.8021,9.82421 40.600886,40.600886 0 0 0 24.8021,9.8056 z m 3.34554,0.0243 v 19.60759 a 40.600886,40.600886 0 0 0 24.82381,-9.82679 40.600886,40.600886 0 0 0 -24.82381,-9.7808 z m 27.60296,12.40131 a 44.402054,44.402054 0 0 1 -27.60296,11.00605 v 15.43316 h 38.868944 a 40.600886,40.600886 0 0 0 -11.265984,-26.43922 z m -58.50909,0.006 a 40.600886,40.600886 0 0 0 -11.28406,26.43301 h 38.84465 v -15.42264 a 44.402054,44.402054 0 0 1 -27.56059,-11.01018 z m -11.30887,29.77803 a 40.600886,40.600886 0 0 0 10.31514,25.36486 44.402054,44.402054 0 0 1 28.55432,-11.91555 v -13.44931 z m 42.215,0 v 13.45964 a 44.402054,44.402054 0 0 1 28.57138,11.89714 40.600886,40.600886 0 0 0 10.273792,-25.35659 z m 0,17.25941 v 21.61419 a 40.600886,40.600886 0 0 0 25.89144,-10.78126 40.600886,40.600886 0 0 0 -25.89144,-10.83293 z m -3.34554,0.002 a 40.600886,40.600886 0 0 0 -25.90436,10.80037 40.600886,40.600886 0 0 0 25.90436,10.78746 z"
       id="circle846"
       inkscape:connector-curvature="0" />
    <path
       style="opacity:1;fill:#000000;fill-opacity:1;fill-rule:evenodd;stroke:none;stroke-width:1.09432435;stroke-linecap:round;stroke-linejoin:round;stroke-miterlimit:4;stroke-dasharray:none;stroke-opacity:1;paint-order:markers fill stroke"
       d="M 52.916666,191.16665 A 52.916666,52.916666 0 0 0 2.1666665e-7,244.08331 52.916666,52.916666 0 0 0 52.916666,296.99998 52.916666,52.916666 0 0 0 105.83333,244.08331 52.916666,52.916666 0 0 0 52.916666,191.16665 Z M 14.379482,217.6348 h 77.074365 c 0.926571,0 1.672768,0.7462 1.672768,1.67276 v 49.5515 c 0,0.92658 -0.746197,1.67225 -1.672768,1.67225 H 14.379482 c -0.926568,0 -1.672764,-0.74567 -1.672764,-1.67225 v -49.5515 c 0,-0.92656 0.746196,-1.67276 1.672764,-1.67276 z m 10.243304,5.93607 c -0.131458,0 -0.242133,0.0447 -0.331763,0.13436 -0.08963,0.0837 -0.134358,0.19433 -0.134358,0.33176 v 6.06785 c 0,0.13145 0.04473,0.24213 0.134358,0.33176 0.08963,0.0896 0.200305,0.13436 0.331763,0.13436 0.137433,0 0.248108,-0.0447 0.331764,-0.13436 0.08963,-0.0896 0.134358,-0.20031 0.134358,-0.33176 v -1.96267 h 1.326534 c 0.442171,0 0.836305,-0.0956 1.182872,-0.28681 0.352544,-0.19121 0.624761,-0.45729 0.815973,-0.79788 0.197183,-0.3406 0.295587,-0.72911 0.295587,-1.16531 0,-0.44814 -0.0984,-0.84841 -0.295587,-1.20096 -0.191212,-0.35254 -0.463429,-0.62757 -0.815973,-0.82475 -0.346567,-0.19719 -0.740701,-0.29559 -1.182872,-0.29559 z m 5.29735,0 c -0.131455,0 -0.238805,0.0419 -0.322461,0.12557 -0.08365,0.0837 -0.125574,0.19101 -0.125574,0.32246 v 4.89376 c 0,0.31669 0.057,0.60348 0.170532,0.86041 0.113533,0.25097 0.271748,0.44829 0.474909,0.5917 0.209134,0.13743 0.442243,0.20619 0.69918,0.20619 h 0.01757 c 0.17926,0 0.325718,-0.0419 0.43925,-0.12558 0.11353,-0.0836 0.170532,-0.191 0.170532,-0.32246 0,-0.13145 -0.03911,-0.23932 -0.116789,-0.32298 -0.0717,-0.0837 -0.167299,-0.12557 -0.286804,-0.12557 h -0.22376 c -0.131456,0 -0.239321,-0.0716 -0.322977,-0.21497 -0.08365,-0.14341 -0.125055,-0.32565 -0.125055,-0.54674 v -4.89376 c 0,-0.13145 -0.04192,-0.2388 -0.125574,-0.32246 -0.08366,-0.0837 -0.191522,-0.12557 -0.322979,-0.12557 z m -4.831228,0.86041 h 1.326534 c 0.40632,0 0.740642,0.13752 1.003556,0.41238 0.262914,0.27486 0.394809,0.62427 0.394809,1.04851 0,0.40632 -0.131895,0.74116 -0.394809,1.00408 -0.262914,0.25693 -0.597236,0.38499 -1.003556,0.38499 h -1.326534 z m 24.194905,0.59945 V 236.7928 H 42.574662 26.233025 v 14.40687 10.10585 H 84.075486 V 246.89864 236.7928 H 73.796527 v -11.76207 z m -8.704379,0.59273 c -0.298765,0 -0.579411,0.0537 -0.842325,0.16123 -0.262914,0.10158 -0.489887,0.24804 -0.681096,0.43925 v -0.0987 c 0,-0.13743 -0.04192,-0.2481 -0.125574,-0.33176 -0.08365,-0.0837 -0.194331,-0.12557 -0.331763,-0.12557 -0.131456,0 -0.241615,0.0419 -0.331245,0.12557 -0.08365,0.0837 -0.125574,0.19433 -0.125574,0.33176 v 3.99769 c 0,0.13146 0.04192,0.24162 0.125574,0.33125 0.08963,0.0837 0.199789,0.12557 0.331245,0.12557 0.137432,0 0.24811,-0.0419 0.331763,-0.12557 0.08365,-0.0896 0.125574,-0.19979 0.125574,-0.33125 v -2.52749 c 0,-0.21511 0.05649,-0.40963 0.170016,-0.58291 0.119505,-0.17328 0.281049,-0.3108 0.484209,-0.41238 0.209135,-0.10158 0.439433,-0.15245 0.690396,-0.15245 0.430223,0 0.773491,0.12576 1.030427,0.37673 0.262914,0.24498 0.394293,0.60947 0.394293,1.09347 v 2.20503 c 0,0.13146 0.04192,0.24162 0.125574,0.33125 0.08963,0.0837 0.200305,0.12557 0.331761,0.12557 0.131458,0 0.238808,-0.0419 0.322461,-0.12557 0.08963,-0.0896 0.134358,-0.19979 0.134358,-0.33125 v -2.20503 c 3e-6,-0.484 -0.09227,-0.89654 -0.2775,-1.23713 -0.185235,-0.34657 -0.442373,-0.60933 -0.771015,-0.78859 -0.328641,-0.17926 -0.699262,-0.26871 -1.111559,-0.26871 z m -6.271969,0.009 c -0.460097,0 -0.881068,0.11068 -1.263489,0.33176 -0.376444,0.21512 -0.672171,0.51365 -0.887283,0.89607 -0.215111,0.37645 -0.322976,0.79793 -0.322976,1.26401 -3e-6,0.46607 0.0984,0.89037 0.295587,1.27279 0.20316,0.37644 0.478189,0.67217 0.824756,0.88728 0.352544,0.21511 0.743866,0.32246 1.174089,0.32246 0.346567,0 0.669134,-0.0716 0.967899,-0.21497 0.298764,-0.14341 0.553092,-0.34354 0.762227,-0.60048 v 0.33176 c 0,0.13146 0.04192,0.24162 0.125574,0.33125 0.08963,0.0837 0.199789,0.12557 0.331248,0.12557 0.131455,0 0.239321,-0.0419 0.322977,-0.12557 0.08963,-0.0896 0.134358,-0.19979 0.134358,-0.33125 v -1.99884 c 0,-0.46608 -0.110676,-0.88756 -0.331764,-1.26401 -0.215109,-0.38242 -0.510839,-0.68095 -0.887283,-0.89607 -0.370469,-0.22108 -0.78582,-0.33176 -1.24592,-0.33176 z m 15.997475,0.31006 h 22.470462 v 10.8505 H 50.30494 Z m -15.997475,0.49661 c 0.298767,0 0.567658,0.0749 0.806669,0.22428 0.244989,0.1434 0.436177,0.34354 0.573609,0.60048 0.137433,0.25693 0.20619,0.54372 0.20619,0.86041 0,0.31669 -0.06876,0.60347 -0.20619,0.86041 -0.137432,0.25096 -0.32862,0.4511 -0.573609,0.60048 -0.239011,0.14341 -0.507902,0.21497 -0.806669,0.21497 -0.298765,0 -0.570466,-0.0716 -0.815454,-0.21497 -0.239011,-0.14938 -0.430199,-0.34952 -0.573609,-0.60048 -0.13743,-0.25694 -0.206187,-0.54372 -0.206187,-0.86041 0,-0.31669 0.06876,-0.60348 0.206187,-0.86041 0.14341,-0.25694 0.334598,-0.45708 0.573609,-0.60048 0.244988,-0.14939 0.516689,-0.22428 0.815454,-0.22428 z m -6.628019,11.37502 h 14.214636 v 13.02556 H 27.679446 Z m 14.895216,0 h 6.709151 v 22.47046 H 27.679446 v -9.08472 h 14.895216 z m 7.730278,0 h 32.324125 v 9.08471 H 72.599184 v 13.38575 H 50.30494 Z m 22.772251,9.4449 h 9.551874 v 13.02556 h -9.551874 z"
       id="circle866"
       inkscape:connector-curvature="0" />
  </g>
</svg>
