<?xml version="1.0" encoding="UTF-8" standalone="no"?>
<!-- Created with Inkscape (http://www.inkscape.org/) -->

<svg
   xmlns:dc="http://purl.org/dc/elements/1.1/"
   xmlns:cc="http://creativecommons.org/ns#"
   xmlns:rdf="http://www.w3.org/1999/02/22-rdf-syntax-ns#"
   xmlns:svg="http://www.w3.org/2000/svg"
   xmlns="http://www.w3.org/2000/svg"
   xmlns:sodipodi="http://sodipodi.sourceforge.net/DTD/sodipodi-0.dtd"
   xmlns:inkscape="http://www.inkscape.org/namespaces/inkscape"
   width="400"
   height="400"
   viewBox="0 0 105.83333 105.83334"
   version="1.1"
   id="svg8"
   inkscape:version="0.92.5 (0.92.5+69)"
   sodipodi:docname="016logo2.svg">
  <defs
     id="defs2" />
  <sodipodi:namedview
     id="base"
     pagecolor="#ffffff"
     bordercolor="#666666"
     borderopacity="1.0"
     inkscape:pageopacity="0.0"
     inkscape:pageshadow="2"
     inkscape:zoom="0.30761719"
     inkscape:cx="-225.46878"
     inkscape:cy="208.38256"
     inkscape:document-units="mm"
     inkscape:current-layer="layer1"
     showgrid="false"
     units="px"
     inkscape:window-width="1366"
     inkscape:window-height="712"
     inkscape:window-x="0"
     inkscape:window-y="30"
     inkscape:window-maximized="1" />
  <metadata
     id="metadata5">
    <rdf:RDF>
      <cc:Work
         rdf:about="">
        <dc:format>image/svg+xml</dc:format>
        <dc:type
           rdf:resource="http://purl.org/dc/dcmitype/StillImage" />
        <dc:title></dc:title>
      </cc:Work>
    </rdf:RDF>
  </metadata>
  <g
     inkscape:label="Layer 1"
     inkscape:groupmode="layer"
     id="layer1"
     transform="translate(0,-191.16665)">
    <path
       style="opacity:1;fill:#000000;fill-opacity:1;fill-rule:evenodd;stroke:none;stroke-width:1.09432435;stroke-linecap:round;stroke-linejoin:round;stroke-miterlimit:4;stroke-dasharray:none;stroke-opacity:1;paint-order:markers fill stroke"
       d="m -237.79911,259.97512 a 52.916666,52.916666 0 0 0 -52.91666,52.91667 52.916666,52.916666 0 0 0 52.91666,52.91667 52.916666,52.916666 0 0 0 52.91667,-52.91667 52.916666,52.916666 0 0 0 -52.91667,-52.91667 z m -24.96333,22.40329 a 14.191746,14.191746 0 0 1 13.09894,8.76225 l 24.46104,2.9006 a 14.191745,14.191745 0 0 1 10.60607,-4.78214 14.191745,14.191745 0 0 1 14.1919,14.1919 14.191745,14.191745 0 0 1 -14.1919,14.19138 14.191745,14.191745 0 0 1 -14.10405,-12.75632 l -21.12739,-2.50579 a 14.191746,14.191746 0 0 1 -2.574,3.86281 l 10.27844,20.24527 a 14.191745,14.191745 0 0 1 2.58382,-0.24494 14.191745,14.191745 0 0 1 14.1919,14.1919 14.191745,14.191745 0 0 1 -14.1919,14.19189 14.191745,14.191745 0 0 1 -14.1919,-14.19189 14.191745,14.191745 0 0 1 2.26137,-7.65793 l -11.17968,-22.01985 a 14.191746,14.191746 0 0 1 -0.11266,0.004 14.191746,14.191746 0 0 1 -14.19138,-14.1919 14.191746,14.191746 0 0 1 14.19138,-14.19138 z"
       id="circle837"
       inkscape:connector-curvature="0" />
    <path
       style="opacity:1;fill:#000000;fill-opacity:1;fill-rule:evenodd;stroke:none;stroke-width:1.09432435;stroke-linecap:round;stroke-linejoin:round;stroke-miterlimit:4;stroke-dasharray:none;stroke-opacity:1;paint-order:markers fill stroke"
       d="M 52.916662,191.16665 A 52.916666,52.916666 0 0 0 1.6666667e-6,244.08331 52.916666,52.916666 0 0 0 52.916662,296.99998 52.916666,52.916666 0 0 0 105.83333,244.08331 52.916666,52.916666 0 0 0 52.916662,191.16665 Z m 0,13.89631 c 0.45568,0 0.91123,0.17483 1.26039,0.52399 l 11.35745,11.35745 v -2.58175 c 0,-0.49952 0.40224,-0.90124 0.90175,-0.90124 h 11.88506 c 0.49952,0 0.90176,0.40172 0.90176,0.90124 v 16.27032 l 9.85056,9.85056 c 0.6835,0.68349 0.69631,1.77396 0.0419,2.47479 h -9.74049 v 38.36199 c 0,0.9876 -0.79525,1.78284 -1.78283,1.78284 h -17.83096 v -24.95093 c 0,-0.49951 -0.40224,-0.90175 -0.90175,-0.90175 h -11.88559 c -0.49951,0 -0.90175,0.40224 -0.90175,0.90175 v 24.95093 h -17.83095 c -0.98759,0 -1.78284,-0.79524 -1.78284,-1.78284 v -38.36199 h -9.74049 c -0.6544,-0.70083 -0.64163,-1.7913 0.0419,-2.47479 l 34.89657,-34.89658 c 0.34917,-0.34916 0.80471,-0.52399 1.26039,-0.52399 z"
       id="path815"
       inkscape:connector-curvature="0" />
    <path
       style="opacity:1;fill:#000000;fill-opacity:1;fill-rule:evenodd;stroke:none;stroke-width:1.09432435;stroke-linecap:round;stroke-linejoin:round;stroke-miterlimit:4;stroke-dasharray:none;stroke-opacity:1;paint-order:markers fill stroke"
       d="M 15.932119,57.850248 A 52.916666,52.916666 0 0 0 -36.984551,110.7669 52.916666,52.916666 0 0 0 15.932119,163.68357 52.916666,52.916666 0 0 0 68.84878,110.7669 52.916666,52.916666 0 0 0 15.932119,57.850248 Z m 0,8.51472 A 44.402054,44.402054 0 0 1 60.334062,110.7669 44.402054,44.402054 0 0 1 15.932119,155.16884 44.402054,44.402054 0 0 1 -28.469821,110.7669 44.402054,44.402054 0 0 1 15.932119,66.364968 Z m -1.67277,3.86023 a 40.600886,40.600886 0 0 0 -24.8021,9.824206 40.600886,40.600886 0 0 0 24.8021,9.8056 z m 3.34554,0.0243 v 19.607586 a 40.600886,40.600886 0 0 0 24.82381,-9.82679 40.600886,40.600886 0 0 0 -24.82381,-9.780796 z m 27.60296,12.401306 a 44.402054,44.402054 0 0 1 -27.60296,11.00605 V 109.09001 H 56.473833 A 40.600886,40.600886 0 0 0 45.207849,82.650794 Z m -58.50909,0.006 a 40.600886,40.600886 0 0 0 -11.28406,26.433006 h 38.84465 V 93.667174 a 44.402054,44.402054 0 0 1 -27.56059,-11.01018 z m -11.30887,29.778026 a 40.600886,40.600886 0 0 0 10.31514,25.36486 44.402054,44.402054 0 0 1 28.55432,-11.91555 v -13.44931 z m 42.215,0 v 13.45964 a 44.402054,44.402054 0 0 1 28.57138,11.89714 40.600886,40.600886 0 0 0 10.273792,-25.35659 z m 0,17.25941 v 21.61419 a 40.600886,40.600886 0 0 0 25.89144,-10.78126 40.600886,40.600886 0 0 0 -25.89144,-10.83293 z m -3.34554,0.002 a 40.600886,40.600886 0 0 0 -25.90436,10.80037 40.600886,40.600886 0 0 0 25.90436,10.78746 z"
       id="circle846"
       inkscape:connector-curvature="0" />
    <path
       style="opacity:1;fill:#000000;fill-opacity:1;fill-rule:evenodd;stroke:none;stroke-width:1.09432435;stroke-linecap:round;stroke-linejoin:round;stroke-miterlimit:4;stroke-dasharray:none;stroke-opacity:1;paint-order:markers fill stroke"
       d="m 192.25381,93.974692 a 52.916666,52.916666 0 0 0 -52.91667,52.916658 52.916666,52.916666 0 0 0 52.91667,52.91667 52.916666,52.916666 0 0 0 52.91666,-52.91667 52.916666,52.916666 0 0 0 -52.91666,-52.916658 z m -38.53719,26.468148 h 77.07437 c 0.92657,0 1.67277,0.7462 1.67277,1.67276 v 49.5515 c 0,0.92658 -0.7462,1.67225 -1.67277,1.67225 h -77.07437 c -0.92656,0 -1.67276,-0.74567 -1.67276,-1.67225 v -49.5515 c 0,-0.92656 0.7462,-1.67276 1.67276,-1.67276 z m 10.24331,5.93607 c -0.13146,0 -0.24213,0.0447 -0.33176,0.13436 -0.0896,0.0837 -0.13436,0.19433 -0.13436,0.33176 v 6.06785 c 0,0.13145 0.0447,0.24213 0.13436,0.33176 0.0896,0.0896 0.2003,0.13436 0.33176,0.13436 0.13743,0 0.24811,-0.0447 0.33176,-0.13436 0.0896,-0.0896 0.13436,-0.20031 0.13436,-0.33176 v -1.96267 h 1.32653 c 0.44218,0 0.83631,-0.0956 1.18288,-0.28681 0.35254,-0.19121 0.62476,-0.45729 0.81597,-0.79788 0.19718,-0.3406 0.29559,-0.72911 0.29559,-1.16531 0,-0.44814 -0.0984,-0.84841 -0.29559,-1.20096 -0.19121,-0.35254 -0.46343,-0.62757 -0.81597,-0.82475 -0.34657,-0.19719 -0.7407,-0.29559 -1.18288,-0.29559 z m 5.29735,0 c -0.13146,0 -0.23881,0.0419 -0.32246,0.12557 -0.0837,0.0837 -0.12558,0.19101 -0.12558,0.32246 v 4.89376 c 0,0.31669 0.057,0.60348 0.17054,0.86041 0.11353,0.25097 0.27174,0.44829 0.4749,0.5917 0.20914,0.13743 0.44225,0.20619 0.69918,0.20619 h 0.0176 c 0.17926,0 0.32572,-0.0419 0.43925,-0.12558 0.11353,-0.0836 0.17054,-0.191 0.17054,-0.32246 0,-0.13145 -0.0391,-0.23932 -0.11679,-0.32298 -0.0717,-0.0837 -0.1673,-0.12557 -0.28681,-0.12557 h -0.22376 c -0.13145,0 -0.23932,-0.0716 -0.32297,-0.21497 -0.0837,-0.14341 -0.12506,-0.32565 -0.12506,-0.54674 v -4.89376 c 0,-0.13145 -0.0419,-0.2388 -0.12557,-0.32246 -0.0837,-0.0837 -0.19152,-0.12557 -0.32298,-0.12557 z m -4.83123,0.86041 h 1.32653 c 0.40632,0 0.74065,0.13752 1.00356,0.41238 0.26291,0.27486 0.39481,0.62427 0.39481,1.04851 0,0.40632 -0.1319,0.74116 -0.39481,1.00408 -0.26291,0.25693 -0.59724,0.38499 -1.00356,0.38499 h -1.32653 z m 24.19491,0.59945 v 11.76207 h -6.70916 -16.34163 v 14.40687 10.10585 h 57.84246 v -14.40688 -10.10584 h -10.27896 v -11.76207 z m -8.70438,0.59273 c -0.29877,0 -0.57941,0.0537 -0.84233,0.16123 -0.26291,0.10158 -0.48989,0.24804 -0.68109,0.43925 v -0.0987 c 0,-0.13743 -0.0419,-0.2481 -0.12558,-0.33176 -0.0837,-0.0837 -0.19433,-0.12557 -0.33176,-0.12557 -0.13146,0 -0.24162,0.0419 -0.33125,0.12557 -0.0837,0.0837 -0.12557,0.19433 -0.12557,0.33176 v 3.99769 c 0,0.13146 0.0419,0.24162 0.12557,0.33125 0.0896,0.0837 0.19979,0.12557 0.33125,0.12557 0.13743,0 0.24811,-0.0419 0.33176,-0.12557 0.0836,-0.0896 0.12558,-0.19979 0.12558,-0.33125 v -2.52749 c 0,-0.21511 0.0565,-0.40963 0.17001,-0.58291 0.11951,-0.17328 0.28105,-0.3108 0.48421,-0.41238 0.20914,-0.10158 0.43943,-0.15245 0.6904,-0.15245 0.43022,0 0.77349,0.12576 1.03042,0.37673 0.26292,0.24498 0.3943,0.60947 0.3943,1.09347 v 2.20503 c 0,0.13146 0.0419,0.24162 0.12557,0.33125 0.0896,0.0837 0.20031,0.12557 0.33176,0.12557 0.13146,0 0.23881,-0.0419 0.32246,-0.12557 0.0896,-0.0896 0.13436,-0.19979 0.13436,-0.33125 v -2.20503 c 0,-0.484 -0.0923,-0.89654 -0.2775,-1.23713 -0.18523,-0.34657 -0.44237,-0.60933 -0.77101,-0.78859 -0.32865,-0.17926 -0.69927,-0.26871 -1.11156,-0.26871 z m -6.27197,0.009 c -0.4601,0 -0.88107,0.11068 -1.26349,0.33176 -0.37645,0.21512 -0.67217,0.51365 -0.88728,0.89607 -0.21512,0.37645 -0.32298,0.79793 -0.32298,1.26401 0,0.46607 0.0984,0.89037 0.29559,1.27279 0.20316,0.37644 0.47819,0.67217 0.82475,0.88728 0.35255,0.21511 0.74387,0.32246 1.17409,0.32246 0.34657,0 0.66914,-0.0716 0.9679,-0.21497 0.29876,-0.14341 0.55309,-0.34354 0.76223,-0.60048 v 0.33176 c 0,0.13146 0.0419,0.24162 0.12557,0.33125 0.0896,0.0837 0.19979,0.12557 0.33125,0.12557 0.13145,0 0.23932,-0.0419 0.32298,-0.12557 0.0896,-0.0896 0.13435,-0.19979 0.13435,-0.33125 v -1.99884 c 0,-0.46608 -0.11067,-0.88756 -0.33176,-1.26401 -0.21511,-0.38242 -0.51084,-0.68095 -0.88728,-0.89607 -0.37047,-0.22108 -0.78582,-0.33176 -1.24592,-0.33176 z m 15.99747,0.31006 h 22.47046 v 10.8505 h -22.47046 z m -15.99747,0.49661 c 0.29876,0 0.56766,0.0749 0.80667,0.22428 0.24499,0.1434 0.43617,0.34354 0.57361,0.60048 0.13743,0.25693 0.20619,0.54372 0.20619,0.86041 0,0.31669 -0.0688,0.60347 -0.20619,0.86041 -0.13744,0.25096 -0.32862,0.4511 -0.57361,0.60048 -0.23901,0.14341 -0.50791,0.21497 -0.80667,0.21497 -0.29877,0 -0.57047,-0.0716 -0.81546,-0.21497 -0.23901,-0.14938 -0.4302,-0.34952 -0.57361,-0.60048 -0.13743,-0.25694 -0.20618,-0.54372 -0.20618,-0.86041 0,-0.31669 0.0688,-0.60348 0.20618,-0.86041 0.14341,-0.25694 0.3346,-0.45708 0.57361,-0.60048 0.24499,-0.14939 0.51669,-0.22428 0.81546,-0.22428 z m -6.62802,11.37502 h 14.21463 v 13.02556 h -14.21463 z m 14.89521,0 h 6.70916 v 22.47046 h -21.60437 v -9.08472 h 14.89521 z m 7.73028,0 h 32.32413 v 9.08471 h -10.02988 v 13.38575 h -22.29425 z m 22.77225,9.4449 h 9.55188 v 13.02556 h -9.55188 z"
       id="circle866"
       inkscape:connector-curvature="0" />
  </g>
</svg>
